<svg version="1.1" id="Layer_1" xmlns="http://www.w3.org/2000/svg" xmlns:xlink="http://www.w3.org/1999/xlink" x="0px" y="0px"
	 width="100%" viewBox="0 0 500 500" enable-background="new 0 0 500 500" xml:space="preserve">
<path fill="#FFFFFF" opacity="1.000000" stroke="none" 
	d="
M334.000000,501.000000 
	C222.666687,501.000000 111.833389,501.000000 1.000059,501.000000 
	C1.000040,334.333405 1.000040,167.666794 1.000020,1.000149 
	C167.666565,1.000099 334.333130,1.000099 500.999756,1.000050 
	C500.999847,167.666519 500.999847,334.333038 500.999939,500.999786 
	C445.500000,501.000000 390.000000,501.000000 334.000000,501.000000 
M249.294632,157.886566 
	C237.782608,162.687149 226.270264,167.486969 214.758636,172.288513 
	C204.134888,176.719727 193.487106,181.036179 181.620117,180.415451 
	C172.904083,179.959534 166.251022,173.896851 163.836334,164.156631 
	C161.845337,156.125580 164.712952,149.198868 172.392456,144.802063 
	C184.533813,137.850662 196.822906,138.127167 208.968170,144.918259 
	C210.876511,145.985306 212.522446,147.521622 214.289719,148.840958 
	C214.518906,147.441086 214.227356,146.537079 213.740814,145.754227 
	C199.126282,122.239098 168.377762,116.670914 146.854385,133.991882 
	C131.994293,145.950562 127.156670,158.810135 132.627411,177.358871 
	C139.511978,200.701233 161.207428,212.829575 185.275391,208.568817 
	C201.840103,205.636368 216.547195,198.412613 230.615189,189.753616 
	C246.067307,180.242661 261.210114,170.268036 278.746796,164.765686 
	C300.128479,158.056900 320.696259,158.773163 340.205353,170.816513 
	C341.179657,171.417969 342.399567,171.621643 344.093048,172.217346 
	C343.672668,170.900909 343.655487,170.331543 343.364471,170.010086 
	C331.092041,156.453339 316.212891,148.430328 297.572876,147.838577 
	C280.893829,147.309097 265.326477,151.716614 249.294632,157.886566 
M295.403687,170.767517 
	C286.051086,174.552322 276.293243,177.574646 267.432404,182.284561 
	C250.287704,191.397659 233.815704,201.771057 216.731674,211.005646 
	C207.673569,215.901886 197.749878,218.907791 187.231476,219.038544 
	C182.094467,219.102417 176.956024,219.049591 171.818222,219.049591 
	C177.850052,224.383286 184.870499,226.473770 192.338989,226.955978 
	C215.192307,228.431549 233.573654,217.639648 251.324448,205.178696 
	C262.035767,197.659409 272.459961,189.655060 283.628906,182.884445 
	C295.527618,175.671432 308.557770,171.204834 322.972046,172.628677 
	C314.237183,168.560043 305.247986,169.156342 295.403687,170.767517 
M323.139496,179.062042 
	C316.070618,176.481308 308.843292,176.625961 302.539551,180.409180 
	C294.194000,185.417831 286.097198,191.002472 278.552826,197.148911 
	C265.491699,207.789978 253.842880,220.295914 236.998672,226.686005 
	C244.026794,231.395493 250.596924,230.731552 257.335114,227.852142 
	C269.800049,222.525574 278.083923,211.929688 287.917542,203.353516 
	C299.714142,193.065338 310.926147,182.136902 328.423676,181.870392 
	C326.892975,181.051544 325.362244,180.232697 323.139496,179.062042 
M292.025696,286.457794 
	C292.028809,288.617828 291.834686,290.804230 292.118195,292.926819 
	C292.260010,293.988312 293.068970,295.552429 293.924713,295.835571 
	C302.784119,298.766541 311.444427,294.331390 312.775238,285.149048 
	C314.014252,276.600006 314.290924,267.749359 313.639038,259.133789 
	C312.982025,250.450684 309.225372,248.003372 300.361969,247.973694 
	C299.863495,247.972031 299.365021,247.972031 298.866547,247.971649 
	C292.030548,247.966568 292.027863,247.966568 292.026398,254.566101 
	C292.024078,264.867859 292.025787,275.169586 292.025696,286.457794 
M345.784119,252.925812 
	C344.134583,247.235855 343.243500,246.843109 336.143616,248.888260 
	C337.560608,256.800598 338.946655,264.753723 340.418427,272.690918 
	C341.594208,279.031525 342.815460,285.364990 344.130920,291.677826 
	C344.882935,295.286682 347.287018,297.097412 350.953735,296.873657 
	C354.003448,296.687531 355.820496,295.580841 356.337982,291.866760 
	C357.476898,283.692719 359.430664,275.634064 360.982666,267.515106 
	C362.176147,261.271637 363.264008,255.008011 364.392212,248.789658 
	C356.553772,247.235184 355.947449,247.658203 355.044586,254.192673 
	C353.624268,264.472290 352.173553,274.747711 350.587646,286.083221 
	C348.927124,274.594360 347.423248,264.189392 345.784119,252.925812 
M122.964035,263.420410 
	C120.328735,274.078857 117.693436,284.737335 114.934448,295.896027 
	C119.402885,295.708344 123.357559,297.723297 124.423309,291.506927 
	C125.687584,284.132599 126.601723,283.950623 134.463333,285.665649 
	C137.091995,296.972321 137.475159,297.329559 144.668198,295.111542 
	C144.740616,294.650543 144.979141,294.124298 144.869766,293.684509 
	C141.277863,279.239166 137.723602,264.783325 133.913132,250.395432 
	C133.564087,249.077560 131.402435,247.205902 130.334747,247.358337 
	C128.793198,247.578430 126.754936,249.147629 126.214577,250.614822 
	C124.793861,254.472443 124.067841,258.585907 122.964035,263.420410 
M203.228989,294.951538 
	C209.249161,297.239075 210.911926,296.253357 210.942734,290.313507 
	C210.972046,284.658630 210.787567,278.996094 211.044220,273.352753 
	C211.125000,271.576752 212.327866,269.851807 213.017151,268.103485 
	C213.690964,269.870911 214.446503,271.613312 214.999802,273.417694 
	C215.232910,274.177948 215.039551,275.069031 215.039566,275.900665 
	C215.039642,282.482361 215.039597,289.064056 215.039597,295.513519 
	C223.606522,296.569336 223.939590,296.291290 223.942642,288.839600 
	C223.945175,282.685608 224.014694,276.530365 223.913727,270.378021 
	C223.844055,266.132904 222.717957,262.102997 217.914169,261.290009 
	C214.547256,260.720184 210.963257,261.085052 207.516907,261.434204 
	C204.327942,261.757324 202.759827,263.473022 202.880615,267.131439 
	C203.176865,276.103394 203.008377,285.090698 203.228989,294.951538 
M328.339142,273.951111 
	C331.345001,274.102051 333.839844,273.288971 333.864532,269.789459 
	C333.910065,263.336487 328.025269,267.565399 325.437683,265.178955 
	C325.437683,262.052246 325.437683,258.702972 325.437683,255.413620 
	C335.672363,254.128067 335.672363,254.128067 334.131775,247.971390 
	C329.985352,247.971390 325.687439,248.176559 321.419220,247.908463 
	C317.804718,247.681427 316.907837,249.161194 316.962738,252.532730 
	C317.133179,262.999634 317.024841,273.471130 317.024780,283.940826 
	C317.024689,296.048828 317.024719,296.048828 329.338837,296.003662 
	C335.518311,295.980988 335.831390,295.556885 334.110931,289.259003 
	C331.277893,289.075836 328.374115,288.888092 325.033295,288.672089 
	C325.033295,284.299469 324.892334,280.336975 325.144257,276.399658 
	C325.199036,275.543457 326.661163,274.777313 328.339142,273.951111 
M185.845001,268.537842 
	C190.782501,268.540283 191.672455,269.878143 189.891281,274.892120 
	C185.678116,273.603760 181.261169,274.233795 179.746613,278.390411 
	C178.364914,282.182465 178.391266,286.844879 179.021301,290.935089 
	C180.179382,298.453247 192.705078,298.144714 197.174377,294.644104 
	C197.788437,294.163147 197.937775,292.865021 197.990768,291.927582 
	C198.355942,285.467010 198.811813,279.004272 198.906494,272.537384 
	C199.046616,262.964447 196.868805,260.927002 187.261749,260.998322 
	C186.261948,261.005737 185.252457,260.941315 184.264114,261.055054 
	C178.716629,261.693573 177.379135,264.197418 179.759323,269.533600 
	C181.525589,269.289795 183.313599,269.042969 185.845001,268.537842 
M157.977402,284.318787 
	C157.977402,279.047699 157.977402,273.776611 157.977402,268.505524 
	C158.451263,268.736389 158.925140,268.967224 159.399002,269.198090 
	C160.890625,267.612854 163.751907,265.811035 163.543747,264.494537 
	C163.252243,262.650879 160.674591,261.168671 159.074966,259.531830 
	C158.654388,259.748840 158.233826,259.965881 157.813248,260.182892 
	C157.813248,256.614136 157.813248,253.045349 157.813248,249.579865 
	C150.596039,248.486679 150.062897,248.903763 149.991394,254.968674 
	C149.959656,257.661316 150.707977,260.539215 147.058792,262.043701 
	C146.472244,262.285553 146.962387,265.912354 147.484665,267.830048 
	C147.916931,269.417145 149.804993,270.757812 149.879944,272.265717 
	C150.176651,278.234619 149.657913,284.259308 150.207596,290.192352 
	C150.410507,292.382385 152.318008,295.475494 154.189056,296.175201 
	C156.410904,297.006104 159.501099,295.937714 162.064865,295.182617 
	C162.868927,294.945801 163.596176,293.053528 163.573669,291.934753 
	C163.560455,291.277100 162.072449,290.501831 161.118713,290.054901 
	C160.291794,289.667480 159.283157,289.667877 158.216263,289.471313 
	C158.125610,287.867615 158.051865,286.563080 157.977402,284.318787 
M243.875443,263.592346 
	C242.167755,262.365753 240.460068,261.139130 237.897034,259.298157 
	C237.897034,256.725250 237.897034,253.150314 237.897034,249.696198 
	C230.666290,248.363358 230.038544,248.858597 229.998688,255.351334 
	C229.982895,257.925232 230.573715,260.533691 227.133652,261.962067 
	C226.377533,262.276001 226.563736,267.333649 226.887039,267.399414 
	C231.268143,268.290558 229.879761,271.618744 229.959946,274.163483 
	C230.101395,278.651184 229.894440,283.150146 230.047501,287.637115 
	C230.119492,289.747040 229.962982,292.811768 231.190842,293.728790 
	C233.422012,295.395111 236.597610,296.389404 239.404144,296.447235 
	C240.846298,296.476990 242.342529,293.882538 243.814331,292.473938 
	C242.111511,291.262604 240.408691,290.051270 238.313950,288.561127 
	C238.313950,282.293335 238.313950,275.393585 238.313950,268.493805 
	C238.694138,268.726440 239.074326,268.959076 239.454498,269.191742 
	C240.929733,267.594818 242.404968,265.997925 243.875443,263.592346 
M166.996216,283.488098 
	C166.996216,287.551483 166.996216,291.614868 166.996216,295.557953 
	C174.967346,296.434570 174.971649,296.434570 174.974228,289.710663 
	C174.978104,279.588898 174.975235,269.467163 174.975235,259.345398 
	C174.975235,254.753571 174.975235,250.161758 174.975235,245.695236 
	C167.999741,244.525650 167.012756,245.256729 167.001892,251.130203 
	C166.982529,261.583771 166.996307,272.037415 166.996216,283.488098 
M273.809326,289.255951 
	C269.462250,290.820496 267.405579,288.706818 267.070984,284.673279 
	C266.783203,281.204254 266.805328,277.676086 267.072906,274.203522 
	C267.359772,270.480896 268.463440,267.371979 273.410797,267.830963 
	C274.482605,267.930420 276.813690,265.941071 276.676208,265.362549 
	C276.313141,263.834534 275.204803,261.844330 273.875549,261.298370 
	C268.748047,259.192474 262.641418,261.832001 260.589996,267.057983 
	C257.462708,275.024933 257.309082,283.243927 260.024384,291.346161 
	C261.835693,296.751038 269.763855,299.161804 274.231750,295.755768 
	C276.620117,293.935059 277.221191,291.526245 273.809326,289.255951 
M255.005371,273.513733 
	C255.005035,270.695648 255.260132,267.844116 254.897568,265.073425 
	C254.713852,263.669342 253.415298,262.411133 252.620773,261.086975 
	C250.787369,262.195404 247.410034,263.241577 247.362411,264.422058 
	C246.944595,274.779480 247.120544,285.160919 247.120544,295.420135 
	C254.999741,296.632751 255.001144,296.632751 255.004791,289.429352 
	C255.007324,284.456238 255.005341,279.483124 255.005371,273.513733 
M296.044861,328.783844 
	C296.280609,336.638336 297.716766,337.453430 309.850739,336.217133 
	C309.436035,333.981018 309.500153,331.493774 308.406036,329.721649 
	C307.919678,328.933899 305.096954,329.588654 302.111877,329.588654 
	C304.048615,331.383087 304.873138,332.147003 305.697632,332.910919 
	C305.491669,333.390381 305.285736,333.869843 305.079773,334.349304 
	C303.293610,333.857025 300.567261,333.877380 299.951050,332.747223 
	C299.115723,331.215149 299.308197,328.454498 300.221008,326.904907 
	C300.715668,326.065125 303.622772,326.561707 305.436615,326.617798 
	C306.412567,326.647980 307.377899,327.020996 309.331604,327.460663 
	C304.587830,320.875488 299.334076,321.564117 296.044861,328.783844 
M288.894623,330.079346 
	C286.731354,327.599945 284.568054,325.120544 281.565613,321.679352 
	C281.565613,327.851288 281.565613,332.361572 281.565613,336.871826 
	C282.054840,336.943024 282.544067,337.014252 283.033295,337.085449 
	C283.446991,334.921265 283.860687,332.757080 284.341766,330.240387 
	C286.496979,332.805084 288.459351,335.140320 291.234619,338.442902 
	C291.234619,332.076111 291.234619,327.591095 291.234619,323.106079 
	C290.699249,323.090057 290.163849,323.074005 289.628479,323.057953 
	C289.441895,325.169006 289.255310,327.280060 288.894623,330.079346 
M203.959747,327.737427 
	C203.959747,330.770325 203.959747,333.803223 203.959747,336.836121 
	C204.590210,336.923309 205.220688,337.010529 205.851151,337.097748 
	C206.382797,334.896576 206.914444,332.695404 207.476974,330.366394 
	C209.547195,332.902161 211.423355,335.200226 213.299515,337.498291 
	C213.623062,337.207886 213.946625,336.917480 214.270172,336.627075 
	C214.270172,332.123566 214.270172,327.620087 214.270172,322.872375 
	C213.265350,323.273438 212.732117,323.354004 212.705719,323.516815 
	C212.348465,325.718231 212.061676,327.931122 211.664978,330.812897 
	C210.305847,328.744873 209.347336,327.057343 208.155121,325.555298 
	C207.398636,324.602234 206.294510,323.925079 205.346298,323.124207 
	C204.884216,324.362640 204.422119,325.601044 203.959747,327.737427 
M232.167404,327.588959 
	C232.198822,334.947723 233.583252,337.469940 237.795227,337.305847 
	C242.824097,337.109924 243.431580,333.281677 243.452850,329.492065 
	C243.464752,327.371429 242.656174,325.246155 242.217300,323.122986 
	C241.560608,325.205170 241.034149,327.340851 240.207047,329.352997 
	C239.513855,331.039307 238.469681,332.581329 237.580917,334.187256 
	C236.730576,332.476135 235.592911,330.841888 235.108963,329.032745 
	C234.603516,327.143127 234.727341,325.085205 234.576065,323.100861 
	C234.024368,323.071198 233.472672,323.041534 232.920975,323.011871 
	C232.670227,324.246948 232.419495,325.481995 232.167404,327.588959 
M171.108810,326.660767 
	C171.256012,329.211334 170.463531,332.591919 171.793564,334.097687 
	C173.377014,335.890381 176.744629,336.520782 179.415726,336.745514 
	C180.562790,336.842041 181.902542,334.648193 183.429901,333.241547 
	C179.568176,333.241547 176.950165,333.661896 174.659149,332.981415 
	C173.985275,332.781281 173.734634,327.956085 174.147507,327.818207 
	C176.774979,326.940765 179.642426,326.781952 182.343750,326.398743 
	C180.919983,321.727386 176.285370,321.241547 171.108810,326.660767 
M188.619675,335.808350 
	C191.715759,337.931976 194.916977,338.118652 197.648773,335.471283 
	C200.276291,332.924957 200.599060,329.698944 198.986954,326.347412 
	C197.418869,323.087463 194.588058,322.553589 191.458008,323.037323 
	C186.343948,323.827759 184.831024,329.461334 188.619675,335.808350 
M225.501694,326.369385 
	C226.107330,325.706146 226.712967,325.042877 227.318604,324.379669 
	C225.971832,323.910217 224.517471,322.883636 223.306549,323.117523 
	C221.907516,323.387665 220.220230,324.520599 219.613998,325.750183 
	C219.176819,326.636932 219.939957,328.661163 220.813568,329.524536 
	C222.232193,330.926605 224.179810,331.793457 225.904114,332.886261 
	C225.715912,333.352722 225.527725,333.819214 225.339523,334.285675 
	C223.408127,333.789948 221.476730,333.294189 219.545349,332.798462 
	C219.622147,334.580322 220.539993,336.595581 221.548080,336.641815 
	C223.649124,336.738129 226.855026,336.494446 227.743912,335.154572 
	C231.575485,329.378906 223.607788,329.718719 222.117218,325.846008 
	C223.387726,325.968262 224.134369,326.040100 225.501694,326.369385 
M282.367889,286.857086 
	C278.964874,288.349609 277.984924,291.320496 279.536896,294.158905 
	C280.332520,295.614014 283.855988,297.016296 285.175598,296.391571 
	C286.927246,295.562164 288.667114,292.755554 288.723572,290.750977 
	C288.810547,287.662354 286.717285,285.574493 282.367889,286.857086 
M259.253174,325.529144 
	C260.300293,326.849213 261.889832,328.030792 262.270416,329.521088 
	C262.876740,331.895264 262.678009,334.475067 262.891174,338.224487 
	C268.295044,333.917053 261.988312,325.736816 270.105896,323.986145 
	C266.124054,323.348267 262.532013,323.330994 258.942657,323.420624 
	C258.817810,323.423737 258.719604,324.493652 259.253174,325.529144 
M247.059341,254.210693 
	C248.532379,255.673691 250.005402,257.136688 251.478439,258.599670 
	C252.638977,257.146088 254.445526,255.838226 254.813675,254.205948 
	C255.416321,251.533905 255.610962,247.800171 251.931885,247.415085 
	C248.420593,247.047562 246.992615,250.021942 247.059341,254.210693 
M247.964523,325.875854 
	C247.964523,329.466095 247.964523,333.056366 247.964523,337.167938 
	C251.368530,336.955566 254.038239,336.789032 256.707947,336.622467 
	C256.723572,336.060333 256.739227,335.498199 256.754852,334.936066 
	C254.972656,334.516602 253.190460,334.097107 250.845886,333.545258 
	C250.845886,330.793518 250.951813,328.004883 250.773254,325.234619 
	C250.727188,324.519897 249.787308,323.862793 249.258026,323.179199 
	C248.834259,323.779968 248.410492,324.380707 247.964523,325.875854 
M274.532196,323.150421 
	C272.380829,326.434357 272.409943,333.781158 275.364410,337.960510 
	C275.364410,332.400085 275.364410,327.889526 274.532196,323.150421 
M169.580994,218.515381 
	C169.580994,218.515381 169.489136,218.564880 169.580994,218.515381 
z"/>
<path fill="#5EE1E6" opacity="1.000000" stroke="none" 
	d="
M249.656387,157.749207 
	C265.326477,151.716614 280.893829,147.309097 297.572876,147.838577 
	C316.212891,148.430328 331.092041,156.453339 343.364471,170.010086 
	C343.655487,170.331543 343.672668,170.900909 344.093048,172.217346 
	C342.399567,171.621643 341.179657,171.417969 340.205353,170.816513 
	C320.696259,158.773163 300.128479,158.056900 278.746796,164.765686 
	C261.210114,170.268036 246.067307,180.242661 230.615189,189.753616 
	C216.547195,198.412613 201.840103,205.636368 185.275391,208.568817 
	C161.207428,212.829575 139.511978,200.701233 132.627411,177.358871 
	C127.156670,158.810135 131.994293,145.950562 146.854385,133.991882 
	C168.377762,116.670914 199.126282,122.239098 213.740814,145.754227 
	C214.227356,146.537079 214.518906,147.441086 214.289719,148.840958 
	C212.522446,147.521622 210.876511,145.985306 208.968170,144.918259 
	C196.822906,138.127167 184.533813,137.850662 172.392456,144.802063 
	C164.712952,149.198868 161.845337,156.125580 163.836334,164.156631 
	C166.251022,173.896851 172.904083,179.959534 181.620117,180.415451 
	C193.487106,181.036179 204.134888,176.719727 214.758636,172.288513 
	C226.270264,167.486969 237.782608,162.687149 249.656387,157.749207 
z"/>
<path fill="#DADADA" opacity="1.000000" stroke="none" 
	d="
M295.804993,170.617096 
	C305.247986,169.156342 314.237183,168.560043 322.972046,172.628677 
	C308.557770,171.204834 295.527618,175.671432 283.628906,182.884445 
	C272.459961,189.655060 262.035767,197.659409 251.324448,205.178696 
	C233.573654,217.639648 215.192307,228.431549 192.338989,226.955978 
	C184.870499,226.473770 177.850052,224.383286 171.818222,219.049591 
	C176.956024,219.049591 182.094467,219.102417 187.231476,219.038544 
	C197.749878,218.907791 207.673569,215.901886 216.731674,211.005646 
	C233.815704,201.771057 250.287704,191.397659 267.432404,182.284561 
	C276.293243,177.574646 286.051086,174.552322 295.804993,170.617096 
z"/>
<path fill="#DADADA" opacity="1.000000" stroke="none" 
	d="
M323.485504,179.237946 
	C325.362244,180.232697 326.892975,181.051544 328.423676,181.870392 
	C310.926147,182.136902 299.714142,193.065338 287.917542,203.353516 
	C278.083923,211.929688 269.800049,222.525574 257.335114,227.852142 
	C250.596924,230.731552 244.026794,231.395493 236.998672,226.686005 
	C253.842880,220.295914 265.491699,207.789978 278.552826,197.148911 
	C286.097198,191.002472 294.194000,185.417831 302.539551,180.409180 
	C308.843292,176.625961 316.070618,176.481308 323.485504,179.237946 
z"/>
<path fill="#DADADA" opacity="1.000000" stroke="none" 
	d="
M292.025757,285.964569 
	C292.025787,275.169586 292.024078,264.867859 292.026398,254.566101 
	C292.027863,247.966568 292.030548,247.966568 298.866547,247.971649 
	C299.365021,247.972031 299.863495,247.972031 300.361969,247.973694 
	C309.225372,248.003372 312.982025,250.450684 313.639038,259.133789 
	C314.290924,267.749359 314.014252,276.600006 312.775238,285.149048 
	C311.444427,294.331390 302.784119,298.766541 293.924713,295.835571 
	C293.068970,295.552429 292.260010,293.988312 292.118195,292.926819 
	C291.834686,290.804230 292.028809,288.617828 292.025757,285.964569 
M301.101807,288.615387 
	C302.359344,287.001831 304.626556,285.435181 304.704102,283.766754 
	C305.092590,275.410461 305.051208,267.022888 304.780365,258.658600 
	C304.736115,257.291962 302.790100,255.986969 301.723083,254.653488 
	C301.280518,254.887024 300.837952,255.120560 300.395386,255.354095 
	C300.395386,266.327667 300.395386,277.301270 301.101807,288.615387 
z"/>
<path fill="#DADADA" opacity="1.000000" stroke="none" 
	d="
M345.851746,253.355133 
	C347.423248,264.189392 348.927124,274.594360 350.587646,286.083221 
	C352.173553,274.747711 353.624268,264.472290 355.044586,254.192673 
	C355.947449,247.658203 356.553772,247.235184 364.392212,248.789658 
	C363.264008,255.008011 362.176147,261.271637 360.982666,267.515106 
	C359.430664,275.634064 357.476898,283.692719 356.337982,291.866760 
	C355.820496,295.580841 354.003448,296.687531 350.953735,296.873657 
	C347.287018,297.097412 344.882935,295.286682 344.130920,291.677826 
	C342.815460,285.364990 341.594208,279.031525 340.418427,272.690918 
	C338.946655,264.753723 337.560608,256.800598 336.143616,248.888260 
	C343.243500,246.843109 344.134583,247.235855 345.851746,253.355133 
z"/>
<path fill="#DADADA" opacity="1.000000" stroke="none" 
	d="
M123.014557,263.008911 
	C124.067841,258.585907 124.793861,254.472443 126.214577,250.614822 
	C126.754936,249.147629 128.793198,247.578430 130.334747,247.358337 
	C131.402435,247.205902 133.564087,249.077560 133.913132,250.395432 
	C137.723602,264.783325 141.277863,279.239166 144.869766,293.684509 
	C144.979141,294.124298 144.740616,294.650543 144.668198,295.111542 
	C137.475159,297.329559 137.091995,296.972321 134.463333,285.665649 
	C126.601723,283.950623 125.687584,284.132599 124.423309,291.506927 
	C123.357559,297.723297 119.402885,295.708344 114.934448,295.896027 
	C117.693436,284.737335 120.328735,274.078857 123.014557,263.008911 
M128.986176,267.510254 
	C128.379410,270.809235 127.772652,274.108215 127.140381,277.545898 
	C129.346420,277.545898 131.014740,277.545898 133.035431,277.545898 
	C132.143402,272.321991 131.335236,267.589172 130.527069,262.856323 
	C130.241989,262.811829 129.956894,262.767334 129.671799,262.722809 
	C129.448792,264.043243 129.225769,265.363708 128.986176,267.510254 
z"/>
<path fill="#DADADA" opacity="1.000000" stroke="none" 
	d="
M203.127930,294.511658 
	C203.008377,285.090698 203.176865,276.103394 202.880615,267.131439 
	C202.759827,263.473022 204.327942,261.757324 207.516907,261.434204 
	C210.963257,261.085052 214.547256,260.720184 217.914169,261.290009 
	C222.717957,262.102997 223.844055,266.132904 223.913727,270.378021 
	C224.014694,276.530365 223.945175,282.685608 223.942642,288.839600 
	C223.939590,296.291290 223.606522,296.569336 215.039597,295.513519 
	C215.039597,289.064056 215.039642,282.482361 215.039566,275.900665 
	C215.039551,275.069031 215.232910,274.177948 214.999802,273.417694 
	C214.446503,271.613312 213.690964,269.870911 213.017151,268.103485 
	C212.327866,269.851807 211.125000,271.576752 211.044220,273.352753 
	C210.787567,278.996094 210.972046,284.658630 210.942734,290.313507 
	C210.911926,296.253357 209.249161,297.239075 203.127930,294.511658 
z"/>
<path fill="#DBDBDB" opacity="1.000000" stroke="none" 
	d="
M327.907104,273.960388 
	C326.661163,274.777313 325.199036,275.543457 325.144257,276.399658 
	C324.892334,280.336975 325.033295,284.299469 325.033295,288.672089 
	C328.374115,288.888092 331.277893,289.075836 334.110931,289.259003 
	C335.831390,295.556885 335.518311,295.980988 329.338837,296.003662 
	C317.024719,296.048828 317.024689,296.048828 317.024780,283.940826 
	C317.024841,273.471130 317.133179,262.999634 316.962738,252.532730 
	C316.907837,249.161194 317.804718,247.681427 321.419220,247.908463 
	C325.687439,248.176559 329.985352,247.971390 334.131775,247.971390 
	C335.672363,254.128067 335.672363,254.128067 325.437683,255.413620 
	C325.437683,258.702972 325.437683,262.052246 325.437683,265.178955 
	C328.025269,267.565399 333.910065,263.336487 333.864532,269.789459 
	C333.839844,273.288971 331.345001,274.102051 327.907104,273.960388 
z"/>
<path fill="#DADADA" opacity="1.000000" stroke="none" 
	d="
M185.473297,268.666992 
	C183.313599,269.042969 181.525589,269.289795 179.759323,269.533600 
	C177.379135,264.197418 178.716629,261.693573 184.264114,261.055054 
	C185.252457,260.941315 186.261948,261.005737 187.261749,260.998322 
	C196.868805,260.927002 199.046616,262.964447 198.906494,272.537384 
	C198.811813,279.004272 198.355942,285.467010 197.990768,291.927582 
	C197.937775,292.865021 197.788437,294.163147 197.174377,294.644104 
	C192.705078,298.144714 180.179382,298.453247 179.021301,290.935089 
	C178.391266,286.844879 178.364914,282.182465 179.746613,278.390411 
	C181.261169,274.233795 185.678116,273.603760 189.891281,274.892120 
	C191.672455,269.878143 190.782501,268.540283 185.473297,268.666992 
M189.534973,280.408478 
	C185.397186,281.640503 185.707397,284.796448 186.617279,287.866577 
	C186.877518,288.744690 188.494995,289.220520 189.490112,289.880829 
	C189.983154,288.955780 190.886002,288.030731 190.886017,287.105682 
	C190.886078,285.021393 190.439148,282.937134 189.534973,280.408478 
z"/>
<path fill="#DADADA" opacity="1.000000" stroke="none" 
	d="
M157.977753,284.788635 
	C158.051865,286.563080 158.125610,287.867615 158.216263,289.471313 
	C159.283157,289.667877 160.291794,289.667480 161.118713,290.054901 
	C162.072449,290.501831 163.560455,291.277100 163.573669,291.934753 
	C163.596176,293.053528 162.868927,294.945801 162.064865,295.182617 
	C159.501099,295.937714 156.410904,297.006104 154.189056,296.175201 
	C152.318008,295.475494 150.410507,292.382385 150.207596,290.192352 
	C149.657913,284.259308 150.176651,278.234619 149.879944,272.265717 
	C149.804993,270.757812 147.916931,269.417145 147.484665,267.830048 
	C146.962387,265.912354 146.472244,262.285553 147.058792,262.043701 
	C150.707977,260.539215 149.959656,257.661316 149.991394,254.968674 
	C150.062897,248.903763 150.596039,248.486679 157.813248,249.579865 
	C157.813248,253.045349 157.813248,256.614136 157.813248,260.182892 
	C158.233826,259.965881 158.654388,259.748840 159.074966,259.531830 
	C160.674591,261.168671 163.252243,262.650879 163.543747,264.494537 
	C163.751907,265.811035 160.890625,267.612854 159.399002,269.198090 
	C158.925140,268.967224 158.451263,268.736389 157.977402,268.505524 
	C157.977402,273.776611 157.977402,279.047699 157.977753,284.788635 
z"/>
<path fill="#DADADA" opacity="1.000000" stroke="none" 
	d="
M243.877823,263.996674 
	C242.404968,265.997925 240.929733,267.594818 239.454498,269.191742 
	C239.074326,268.959076 238.694138,268.726440 238.313950,268.493805 
	C238.313950,275.393585 238.313950,282.293335 238.313950,288.561127 
	C240.408691,290.051270 242.111511,291.262604 243.814331,292.473938 
	C242.342529,293.882538 240.846298,296.476990 239.404144,296.447235 
	C236.597610,296.389404 233.422012,295.395111 231.190842,293.728790 
	C229.962982,292.811768 230.119492,289.747040 230.047501,287.637115 
	C229.894440,283.150146 230.101395,278.651184 229.959946,274.163483 
	C229.879761,271.618744 231.268143,268.290558 226.887039,267.399414 
	C226.563736,267.333649 226.377533,262.276001 227.133652,261.962067 
	C230.573715,260.533691 229.982895,257.925232 229.998688,255.351334 
	C230.038544,248.858597 230.666290,248.363358 237.897034,249.696198 
	C237.897034,253.150314 237.897034,256.725250 237.897034,259.298157 
	C240.460068,261.139130 242.167755,262.365753 243.877823,263.996674 
z"/>
<path fill="#DBDBDB" opacity="1.000000" stroke="none" 
	d="
M166.996216,282.989563 
	C166.996307,272.037415 166.982529,261.583771 167.001892,251.130203 
	C167.012756,245.256729 167.999741,244.525650 174.975235,245.695236 
	C174.975235,250.161758 174.975235,254.753571 174.975235,259.345398 
	C174.975235,269.467163 174.978104,279.588898 174.974228,289.710663 
	C174.971649,296.434570 174.967346,296.434570 166.996216,295.557953 
	C166.996216,291.614868 166.996216,287.551483 166.996216,282.989563 
z"/>
<path fill="#DBDBDB" opacity="1.000000" stroke="none" 
	d="
M274.192200,289.226074 
	C277.221191,291.526245 276.620117,293.935059 274.231750,295.755768 
	C269.763855,299.161804 261.835693,296.751038 260.024384,291.346161 
	C257.309082,283.243927 257.462708,275.024933 260.589996,267.057983 
	C262.641418,261.832001 268.748047,259.192474 273.875549,261.298370 
	C275.204803,261.844330 276.313141,263.834534 276.676208,265.362549 
	C276.813690,265.941071 274.482605,267.930420 273.410797,267.830963 
	C268.463440,267.371979 267.359772,270.480896 267.072906,274.203522 
	C266.805328,277.676086 266.783203,281.204254 267.070984,284.673279 
	C267.405579,288.706818 269.462250,290.820496 274.192200,289.226074 
z"/>
<path fill="#DADADA" opacity="1.000000" stroke="none" 
	d="
M255.005371,274.011871 
	C255.005341,279.483124 255.007324,284.456238 255.004791,289.429352 
	C255.001144,296.632751 254.999741,296.632751 247.120544,295.420135 
	C247.120544,285.160919 246.944595,274.779480 247.362411,264.422058 
	C247.410034,263.241577 250.787369,262.195404 252.620773,261.086975 
	C253.415298,262.411133 254.713852,263.669342 254.897568,265.073425 
	C255.260132,267.844116 255.005035,270.695648 255.005371,274.011871 
z"/>
<path fill="#72E5E9" opacity="1.000000" stroke="none" 
	d="
M296.082458,328.382080 
	C299.334076,321.564117 304.587830,320.875488 309.331604,327.460663 
	C307.377899,327.020996 306.412567,326.647980 305.436615,326.617798 
	C303.622772,326.561707 300.715668,326.065125 300.221008,326.904907 
	C299.308197,328.454498 299.115723,331.215149 299.951050,332.747223 
	C300.567261,333.877380 303.293610,333.857025 305.079773,334.349304 
	C305.285736,333.869843 305.491669,333.390381 305.697632,332.910919 
	C304.873138,332.147003 304.048615,331.383087 302.111877,329.588654 
	C305.096954,329.588654 307.919678,328.933899 308.406036,329.721649 
	C309.500153,331.493774 309.436035,333.981018 309.850739,336.217133 
	C297.716766,337.453430 296.280609,336.638336 296.082458,328.382080 
z"/>
<path fill="#72E5E9" opacity="1.000000" stroke="none" 
	d="
M288.981689,329.735229 
	C289.255310,327.280060 289.441895,325.169006 289.628479,323.057953 
	C290.163849,323.074005 290.699249,323.090057 291.234619,323.106079 
	C291.234619,327.591095 291.234619,332.076111 291.234619,338.442902 
	C288.459351,335.140320 286.496979,332.805084 284.341766,330.240387 
	C283.860687,332.757080 283.446991,334.921265 283.033295,337.085449 
	C282.544067,337.014252 282.054840,336.943024 281.565613,336.871826 
	C281.565613,332.361572 281.565613,327.851288 281.565613,321.679352 
	C284.568054,325.120544 286.731354,327.599945 288.981689,329.735229 
z"/>
<path fill="#72E5E9" opacity="1.000000" stroke="none" 
	d="
M203.959885,327.288452 
	C204.422119,325.601044 204.884216,324.362640 205.346313,323.124207 
	C206.294510,323.925079 207.398636,324.602234 208.155121,325.555298 
	C209.347336,327.057343 210.305847,328.744873 211.664978,330.812897 
	C212.061676,327.931122 212.348465,325.718231 212.705719,323.516815 
	C212.732117,323.354004 213.265350,323.273438 214.270172,322.872375 
	C214.270172,327.620087 214.270172,332.123566 214.270172,336.627075 
	C213.946625,336.917480 213.623062,337.207886 213.299515,337.498291 
	C211.423355,335.200226 209.547195,332.902161 207.476974,330.366394 
	C206.914444,332.695404 206.382797,334.896576 205.851151,337.097748 
	C205.220688,337.010529 204.590210,336.923309 203.959747,336.836121 
	C203.959747,333.803223 203.959747,330.770325 203.959885,327.288452 
z"/>
<path fill="#6BE4E8" opacity="1.000000" stroke="none" 
	d="
M232.168091,327.153015 
	C232.419495,325.481995 232.670227,324.246948 232.920975,323.011871 
	C233.472672,323.041534 234.024368,323.071198 234.576065,323.100861 
	C234.727341,325.085205 234.603516,327.143127 235.108963,329.032745 
	C235.592911,330.841888 236.730576,332.476135 237.580902,334.187256 
	C238.469681,332.581329 239.513855,331.039307 240.207047,329.352997 
	C241.034149,327.340851 241.560608,325.205170 242.217300,323.122986 
	C242.656174,325.246155 243.464752,327.371429 243.452850,329.492065 
	C243.431580,333.281677 242.824097,337.109924 237.795227,337.305847 
	C233.583252,337.469940 232.198822,334.947723 232.168091,327.153015 
z"/>
<path fill="#6BE4E8" opacity="1.000000" stroke="none" 
	d="
M171.262650,326.305908 
	C176.285370,321.241547 180.919983,321.727386 182.343750,326.398743 
	C179.642426,326.781952 176.774979,326.940765 174.147507,327.818207 
	C173.734634,327.956085 173.985275,332.781281 174.659149,332.981415 
	C176.950165,333.661896 179.568176,333.241547 183.429901,333.241547 
	C181.902542,334.648193 180.562790,336.842041 179.415726,336.745514 
	C176.744629,336.520782 173.377014,335.890381 171.793564,334.097687 
	C170.463531,332.591919 171.256012,329.211334 171.262650,326.305908 
z"/>
<path fill="#6BE4E8" opacity="1.000000" stroke="none" 
	d="
M188.354294,335.546509 
	C184.831024,329.461334 186.343948,323.827759 191.458008,323.037323 
	C194.588058,322.553589 197.418869,323.087463 198.986954,326.347412 
	C200.599060,329.698944 200.276291,332.924957 197.648773,335.471283 
	C194.916977,338.118652 191.715759,337.931976 188.354294,335.546509 
M191.859192,334.739716 
	C193.548203,333.588776 196.151459,332.741821 196.664200,331.199768 
	C197.158112,329.714355 195.820023,327.241821 194.606644,325.759979 
	C194.146500,325.198059 190.685638,325.874054 190.495605,326.533875 
	C189.873230,328.694916 190.080322,331.108124 190.093445,333.423706 
	C190.095291,333.750488 190.791870,334.073303 191.859192,334.739716 
z"/>
<path fill="#6BE4E8" opacity="1.000000" stroke="none" 
	d="
M225.191345,326.240662 
	C224.134369,326.040100 223.387726,325.968262 222.117218,325.846008 
	C223.607788,329.718719 231.575485,329.378906 227.743912,335.154572 
	C226.855026,336.494446 223.649124,336.738129 221.548080,336.641815 
	C220.539993,336.595581 219.622147,334.580322 219.545349,332.798462 
	C221.476730,333.294189 223.408127,333.789948 225.339523,334.285675 
	C225.527725,333.819214 225.715912,333.352722 225.904114,332.886261 
	C224.179810,331.793457 222.232193,330.926605 220.813568,329.524536 
	C219.939957,328.661163 219.176819,326.636932 219.613998,325.750183 
	C220.220230,324.520599 221.907516,323.387665 223.306549,323.117523 
	C224.517471,322.883636 225.971832,323.910217 227.318604,324.379639 
	C226.712967,325.042877 226.107330,325.706146 225.191345,326.240662 
z"/>
<path fill="#DBDBDB" opacity="1.000000" stroke="none" 
	d="
M282.712341,286.696655 
	C286.717285,285.574493 288.810547,287.662354 288.723572,290.750977 
	C288.667114,292.755554 286.927246,295.562164 285.175598,296.391571 
	C283.855988,297.016296 280.332520,295.614014 279.536896,294.158905 
	C277.984924,291.320496 278.964874,288.349609 282.712341,286.696655 
z"/>
<path fill="#6BE4E8" opacity="1.000000" stroke="none" 
	d="
M258.931091,325.297729 
	C258.719604,324.493652 258.817810,323.423737 258.942657,323.420624 
	C262.532013,323.330994 266.124054,323.348267 270.105896,323.986145 
	C261.988312,325.736816 268.295044,333.917053 262.891174,338.224487 
	C262.678009,334.475067 262.876740,331.895264 262.270416,329.521088 
	C261.889832,328.030792 260.300293,326.849213 258.931091,325.297729 
z"/>
<path fill="#DADADA" opacity="1.000000" stroke="none" 
	d="
M247.046143,253.815613 
	C246.992615,250.021942 248.420593,247.047562 251.931885,247.415085 
	C255.610962,247.800171 255.416321,251.533905 254.813675,254.205948 
	C254.445526,255.838226 252.638977,257.146088 251.478439,258.599670 
	C250.005402,257.136688 248.532379,255.673691 247.046143,253.815613 
z"/>
<path fill="#72E5E9" opacity="1.000000" stroke="none" 
	d="
M247.975616,325.428650 
	C248.410492,324.380707 248.834259,323.779968 249.258026,323.179199 
	C249.787308,323.862793 250.727188,324.519897 250.773254,325.234619 
	C250.951813,328.004883 250.845886,330.793518 250.845886,333.545258 
	C253.190460,334.097107 254.972656,334.516602 256.754852,334.936066 
	C256.739227,335.498199 256.723572,336.060333 256.707947,336.622467 
	C254.038239,336.789032 251.368530,336.955566 247.964523,337.167938 
	C247.964523,333.056366 247.964523,329.466095 247.975616,325.428650 
z"/>
<path fill="#72E5E9" opacity="1.000000" stroke="none" 
	d="
M274.948303,323.264709 
	C275.364410,327.889526 275.364410,332.400085 275.364410,337.960510 
	C272.409943,333.781158 272.380829,326.434357 274.948303,323.264709 
z"/>
<path fill="#DADADA" opacity="1.000000" stroke="none" 
	d="
M169.535065,218.540131 
	C169.489136,218.564880 169.580994,218.515381 169.535065,218.540131 
z"/>
<path fill="#FEFEFE" opacity="1.000000" stroke="none" 
	d="
M300.748596,288.445129 
	C300.395386,277.301270 300.395386,266.327667 300.395386,255.354095 
	C300.837952,255.120560 301.280518,254.887024 301.723083,254.653488 
	C302.790100,255.986969 304.736115,257.291962 304.780365,258.658600 
	C305.051208,267.022888 305.092590,275.410461 304.704102,283.766754 
	C304.626556,285.435181 302.359344,287.001831 300.748596,288.445129 
z"/>
<path fill="#FBFBFB" opacity="1.000000" stroke="none" 
	d="
M128.994476,267.097198 
	C129.225769,265.363708 129.448792,264.043243 129.671799,262.722809 
	C129.956894,262.767334 130.241989,262.811829 130.527069,262.856323 
	C131.335236,267.589172 132.143402,272.321991 133.035431,277.545898 
	C131.014740,277.545898 129.346420,277.545898 127.140381,277.545898 
	C127.772652,274.108215 128.379410,270.809235 128.994476,267.097198 
z"/>
<path fill="#FBFBFB" opacity="1.000000" stroke="none" 
	d="
M189.854538,280.630676 
	C190.439148,282.937134 190.886078,285.021393 190.886017,287.105682 
	C190.886002,288.030731 189.983154,288.955780 189.490112,289.880829 
	C188.494995,289.220520 186.877518,288.744690 186.617279,287.866577 
	C185.707397,284.796448 185.397186,281.640503 189.854538,280.630676 
z"/>
<path fill="#F3FDFD" opacity="1.000000" stroke="none" 
	d="
M191.513031,334.568848 
	C190.791870,334.073303 190.095291,333.750488 190.093445,333.423706 
	C190.080322,331.108124 189.873230,328.694916 190.495605,326.533875 
	C190.685638,325.874054 194.146500,325.198059 194.606644,325.759979 
	C195.820023,327.241821 197.158112,329.714355 196.664200,331.199768 
	C196.151459,332.741821 193.548203,333.588776 191.513031,334.568848 
z"/>
</svg>