<?xml version="1.0" standalone="no"?>
<!DOCTYPE svg PUBLIC "-//W3C//DTD SVG 20010904//EN"
 "http://www.w3.org/TR/2001/REC-SVG-20010904/DTD/svg10.dtd">
<svg version="1.0" xmlns="http://www.w3.org/2000/svg"
 width="300.000000pt" height="300.000000pt" viewBox="0 0 300.000000 300.000000"
 preserveAspectRatio="xMidYMid meet">
<metadata>
Created by potrace 1.10, written by Peter Selinger 2001-2011
</metadata>
<g transform="translate(0.000000,300.000000) scale(0.100000,-0.100000)"
fill="#000000" stroke="none">
<path d="M953 2244 c-55 -20 -132 -89 -154 -139 -66 -145 54 -337 221 -353 94
-8 236 41 386 135 179 113 286 154 406 155 89 1 136 -11 211 -56 31 -19 57
-31 57 -26 0 13 -102 96 -146 118 -139 71 -275 52 -589 -81 -199 -84 -268 -96
-317 -57 -30 23 -58 78 -58 113 0 55 85 116 163 117 47 0 103 -23 141 -58 27
-25 28 -26 16 -4 -21 42 -83 103 -124 124 -53 27 -156 33 -213 12z m147 -14
c20 -5 44 -15 53 -22 15 -11 11 -13 -28 -16 -89 -6 -161 -58 -171 -124 -8 -49
25 -122 68 -148 60 -37 186 -17 315 48 75 39 255 103 328 117 45 9 153 7 171
-3 11 -6 6 -9 -20 -10 -100 -4 -270 -67 -388 -145 -75 -49 -207 -115 -268
-133 -67 -20 -165 -20 -211 -1 -68 30 -132 118 -146 200 -11 67 36 156 104
198 74 46 129 57 193 39z"/>
<path d="M1753 1975 c-66 -18 -147 -58 -298 -150 -179 -108 -257 -137 -374
-137 l-66 0 35 -16 c25 -12 63 -17 130 -17 91 0 99 2 180 41 47 23 128 74 180
113 128 97 238 151 321 158 44 4 58 8 44 14 -31 12 -95 9 -152 -6z m-128 -83
c-6 -4 -56 -41 -111 -83 -113 -84 -228 -139 -305 -144 -55 -3 -66 9 -18 19 48
9 143 54 260 122 59 34 116 65 127 68 11 4 26 13 33 22 6 8 14 12 18 9 3 -3 1
-9 -4 -13z"/>
<path d="M1825 1928 c-47 -17 -92 -49 -205 -147 -58 -50 -126 -100 -152 -113
-54 -26 -53 -38 4 -38 59 0 95 21 219 132 120 106 165 135 232 147 l42 8 -28
11 c-34 14 -72 14 -112 0z m34 -12 c-2 -2 -22 -16 -44 -31 -22 -14 -80 -63
-128 -108 -96 -89 -151 -127 -182 -127 -16 1 -12 7 20 33 22 18 80 67 130 110
80 69 171 127 199 127 5 0 7 -2 5 -4z"/>
<path d="M1000 1380 c0 -143 1 -150 20 -150 19 0 20 7 20 150 0 143 -1 150
-20 150 -19 0 -20 -7 -20 -150z"/>
<path d="M755 1508 c-6 -18 -65 -266 -65 -273 0 -4 10 -5 23 -3 17 2 23 11 25
37 2 21 0 31 -7 26 -20 -12 -12 31 9 50 16 14 20 31 20 76 0 64 14 85 30 44
12 -32 13 -58 1 -51 -15 10 2 -48 21 -68 19 -21 26 -72 7 -61 -7 5 -9 -3 -7
-21 2 -21 9 -30 26 -32 12 -2 22 0 22 5 -1 4 -16 69 -34 143 -24 101 -37 136
-49 138 -10 2 -19 -2 -22 -10z"/>
<path d="M1487 1513 c-4 -3 -7 -17 -7 -30 0 -16 6 -23 20 -23 16 0 20 7 20 30
0 28 -17 40 -33 23z"/>
<path d="M1750 1375 l0 -145 38 0 c48 0 71 23 77 76 2 22 2 30 -1 19 -15 -53
-25 -35 -23 43 1 45 -1 85 -4 88 -3 3 -7 -35 -9 -84 -2 -50 1 -88 6 -85 5 3 7
0 4 -8 -3 -8 -17 -18 -31 -23 -32 -12 -51 2 -41 28 5 14 9 15 15 4 5 -7 9 27
9 84 0 54 -4 100 -10 103 -5 3 -10 10 -10 16 0 15 22 11 43 -8 12 -10 17 -12
12 -4 -5 9 -3 12 6 9 8 -2 19 -20 26 -39 l12 -34 0 33 c1 45 -29 72 -79 72
l-40 0 0 -145z"/>
<path d="M1901 1463 c1 -61 3 -61 14 0 3 20 10 37 16 37 6 0 8 -4 5 -8 -11
-19 -15 -71 -6 -77 6 -4 10 8 10 29 0 33 2 36 30 36 23 0 30 4 30 20 0 17 -7
20 -50 20 l-50 0 1 -57z"/>
<path d="M2021 1493 c0 -16 10 -80 22 -143 22 -115 22 -115 52 -118 l30 -3 23
123 c12 68 25 133 28 146 5 18 2 22 -18 22 -23 0 -25 -4 -37 -92 -6 -51 -10
-107 -7 -124 5 -39 -8 -64 -25 -47 -8 8 -13 47 -14 100 -3 120 -12 163 -36
163 -14 0 -19 -7 -18 -27z"/>
<path d="M901 1473 c1 -21 3 -30 6 -20 5 18 5 18 19 0 12 -16 13 -15 14 20 0
30 -3 37 -20 37 -17 0 -20 -6 -19 -37z"/>
<path d="M1381 1473 c1 -21 3 -30 6 -20 5 18 5 18 19 0 12 -16 13 -15 14 20 0
30 -3 37 -20 37 -17 0 -20 -6 -19 -37z"/>
<path d="M1083 1433 c-7 -2 -13 -13 -13 -24 0 -16 5 -18 28 -13 15 4 29 11 30
16 6 13 32 9 34 -4 5 -42 5 -125 -1 -138 -3 -8 -20 -16 -38 -16 -24 -1 -32 3
-35 20 -7 38 2 56 28 56 13 0 24 5 24 10 0 17 -57 12 -64 -6 -11 -28 -6 -81 8
-93 8 -7 32 -11 53 -9 l38 3 3 88 c2 57 -1 94 -9 103 -11 14 -61 18 -86 7z"/>
<path d="M1229 1433 c-14 -3 -17 -21 -18 -104 -2 -99 -1 -100 21 -97 13 2 22
6 21 11 -2 4 -3 39 -3 78 0 44 -4 68 -10 64 -5 -3 -10 -1 -10 4 0 6 8 11 18
11 13 0 14 2 3 9 -9 6 -4 8 17 7 17 -1 34 -5 38 -9 11 -11 14 -127 3 -127 -5
0 -9 27 -9 59 0 33 -3 62 -7 64 -5 3 -7 -35 -5 -84 3 -80 5 -89 23 -89 17 0
19 8 19 93 0 59 -4 97 -12 105 -12 12 -56 14 -89 5z"/>
<path d="M1498 1433 c-16 -4 -18 -18 -18 -104 0 -92 1 -99 20 -99 19 0 20 7
20 105 0 58 -1 104 -2 104 -2 -1 -11 -3 -20 -6z"/>
<path d="M1575 1420 c-23 -25 -32 -121 -16 -163 10 -25 15 -28 48 -25 28 2 39
8 41 22 3 14 0 17 -13 12 -28 -10 -45 13 -45 59 0 59 8 75 37 75 18 0 24 5 21
18 -5 26 -50 27 -73 2z"/>
<path d="M870 1415 c0 -8 7 -15 15 -15 11 0 15 -18 17 -82 l3 -83 33 -3 c27
-3 32 0 32 17 0 14 -5 19 -15 15 -12 -5 -15 5 -15 61 0 41 -4 64 -10 60 -5 -3
-11 -18 -11 -33 -1 -28 -4 -21 -14 41 -6 36 -35 55 -35 22z"/>
<path d="M1350 1415 c0 -8 7 -15 15 -15 11 0 15 -18 17 -82 l3 -83 33 -3 c27
-3 32 0 32 17 0 14 -5 19 -15 15 -12 -5 -15 6 -15 62 0 66 -13 79 -23 24 -3
-19 -5 -15 -6 12 0 20 -6 40 -11 43 -6 4 -8 11 -5 16 4 5 -1 9 -9 9 -9 0 -16
-7 -16 -15z"/>
<path d="M1957 1403 c-14 -13 -6 -33 13 -33 13 0 20 7 20 20 0 19 -20 27 -33
13z"/>
<path d="M1931 1360 c-8 -43 -7 -63 5 -85 11 -21 10 -25 -1 -25 -15 0 -22 20
-28 80 -2 19 -5 5 -5 -32 l-2 -68 50 0 c43 0 50 3 50 20 0 15 -7 20 -29 20
-29 0 -30 2 -34 53 -2 28 -5 45 -6 37z"/>
<path d="M1674 1265 c-8 -20 4 -35 27 -35 14 0 19 7 19 25 0 18 -5 25 -20 25
-11 0 -23 -7 -26 -15z"/>
<path d="M1032 1058 c-28 -28 -4 -84 34 -76 30 6 28 27 -3 25 -22 -2 -28 2
-28 18 0 15 7 20 28 20 15 -1 26 4 24 10 -5 15 -40 18 -55 3z"/>
<path d="M1120 1055 c-7 -8 -10 -25 -6 -39 12 -48 76 -41 76 8 0 42 -45 62
-70 31z m54 -14 c10 -16 -5 -41 -25 -41 -14 0 -19 7 -19 25 0 18 5 25 19 25
11 0 22 -4 25 -9z"/>
<path d="M1221 1023 c1 -40 2 -43 8 -18 l6 29 22 -29 22 -30 0 50 c-1 42 -2
45 -8 20 l-8 -30 -13 28 c-20 40 -30 33 -29 -20z"/>
<path d="M1317 1063 c-13 -13 -7 -32 13 -38 11 -3 20 -11 20 -17 0 -6 -9 -8
-20 -5 -24 6 -27 -11 -4 -20 8 -3 22 1 31 9 13 14 12 18 -8 37 -19 18 -20 21
-5 21 9 0 14 5 11 10 -7 11 -28 13 -38 3z"/>
<path d="M1390 1032 c0 -32 4 -42 20 -47 30 -10 40 2 39 48 l-2 42 -6 -35 c-7
-43 -36 -49 -36 -8 -1 15 -4 30 -8 34 -4 4 -7 -11 -7 -34z"/>
<path d="M1480 1025 c0 -41 2 -45 25 -45 14 0 25 5 25 10 0 6 -7 10 -15 10
-10 0 -15 11 -15 35 0 19 -4 35 -10 35 -5 0 -10 -20 -10 -45z"/>
<path d="M1540 1060 c0 -5 7 -10 15 -10 10 0 15 -11 15 -35 0 -19 5 -35 10
-35 6 0 10 16 10 35 0 19 5 35 10 35 6 0 10 5 10 10 0 6 -16 10 -35 10 -19 0
-35 -4 -35 -10z"/>
<path d="M1630 1025 c0 -25 5 -45 10 -45 6 0 10 20 10 45 0 25 -4 45 -10 45
-5 0 -10 -20 -10 -45z"/>
<path d="M1680 1024 c0 -29 4 -43 10 -39 6 4 8 15 5 26 -9 29 10 23 24 -7 15
-33 22 -26 26 25 4 46 -12 57 -17 14 l-4 -28 -14 28 c-19 40 -30 33 -30 -19z"/>
<path d="M1782 1058 c-16 -16 -15 -53 1 -66 6 -6 24 -10 39 -9 22 2 28 7 28
25 0 13 -6 22 -15 22 -9 0 -12 -6 -9 -15 4 -10 0 -15 -15 -15 -16 0 -21 6 -21
26 0 24 3 26 31 20 27 -5 30 -4 19 9 -15 18 -42 19 -58 3z"/>
</g>
</svg>
